# xmcd
#
# Track frame offsets: 
#        150
#        20652
#        47818
#        64386
#        80372
#        100059
#        128696
#        147557
#        174421
#        187492
#        210062
#        232827
#        253819
#        273423
#        290848
#        318623
#
# Disc length: 4509 seconds
#
# Revision: 0
# Processed by: cddbd v1.5.2PL0 Copyright (c) Steve Scherf et al.
# Submitted via: ExactAudioCopy v0.95b1
#
DISCID=f3119b10
DTITLE=Various Artist - Blues. Blues &... Blues vol.1
DYEAR=2005
DGENRE=Blues
TTITLE0=Big Walter Horton -Trouble In Mind
TTITLE1=Katie Webster - Pussycat Moan
TTITLE2=Eddie Shaw And The Wolf Gang - Sitting On Top Of The World
TTITLE3=Elvin Bishop - She Puts Me In The Mood
TTITLE4=Luther Allison - Cherry Red Wine
TTITLE5=Roy Buchanan - Drowning On Dry Land
TTITLE6=Saffire -The Uppity Blues Women - T'aint  Nobody's Business
TTITLE7=Paul Oscher - Straw an a Pipe
TTITLE8=Charlie Musselwhite - Stingaree
TTITLE9=Pinetop Perkins - Blues After Hours
TTITLE10=Freddie King - Love Her With a Feeling
TTITLE11=Grady Gaines - There Is Something On Your Mind
TTITLE12=Kinsey Report - Full Moon On Main Street
TTITLE13=Fenton Robinson - Yon Don't Know What Love Is
TTITLE14=Tinsley Ellis - A Quitter Never Wins
TTITLE15=Roy Buchanan With Delbert Mcclinton and Delbert Mcclinton - Bab
TTITLE15=y. Baby, Baby
EXTD=
EXTT0=
EXTT1=
EXTT2=
EXTT3=
EXTT4=
EXTT5=
EXTT6=
EXTT7=
EXTT8=
EXTT9=
EXTT10=
EXTT11=
EXTT12=
EXTT13=
EXTT14=
EXTT15=
PLAYORDER=
